<?xml version="1.0" standalone="no"?>
<!DOCTYPE svg PUBLIC "-//W3C//DTD SVG 20010904//EN"
 "http://www.w3.org/TR/2001/REC-SVG-20010904/DTD/svg10.dtd">
<svg version="1.0" xmlns="http://www.w3.org/2000/svg"
 width="512.000000pt" height="512.000000pt" viewBox="0 0 512.000000 512.000000"
 preserveAspectRatio="xMidYMid meet">
<metadata>
Created by potrace 1.14, written by Peter Selinger 2001-2017
</metadata>
<g transform="translate(0.000000,512.000000) scale(0.100000,-0.100000)"
fill="#000000" stroke="none">
<path d="M865 4771 c-22 -10 -55 -33 -73 -52 -69 -69 -65 29 -67 -1354 l-1
-1250 -61 -125 c-33 -69 -94 -195 -135 -280 -42 -85 -94 -193 -116 -240 -53
-113 -209 -439 -340 -711 -62 -129 -70 -152 -66 -190 10 -81 66 -160 146 -205
l53 -29 2355 0 2355 0 45 24 c82 44 142 124 155 208 5 36 -3 57 -66 189 -65
137 -94 196 -234 489 -26 55 -81 170 -122 255 -41 85 -92 191 -113 235 -21 44
-71 148 -111 230 l-73 150 -1 1250 -1 1251 -23 44 c-26 50 -57 82 -104 108
-30 16 -133 17 -1697 19 -1604 3 -1666 2 -1705 -16z"/>
</g>
</svg>
